<?xml version="1.0" encoding="UTF-8" standalone="no"?>
<svg
   height="144"
   width="144"
   version="1.1"
   id="svg38457"
   sodipodi:docname="bt-logo-blu.svg"
   inkscape:version="1.1.2 (b8e25be833, 2022-02-05)"
   inkscape:export-filename="bt-logo-blu.png"
   inkscape:export-xdpi="128"
   inkscape:export-ydpi="128"
   xmlns:inkscape="http://www.inkscape.org/namespaces/inkscape"
   xmlns:sodipodi="http://sodipodi.sourceforge.net/DTD/sodipodi-0.dtd"
   xmlns="http://www.w3.org/2000/svg"
   xmlns:svg="http://www.w3.org/2000/svg">
  <defs
     id="defs38461" />
  <sodipodi:namedview
     id="namedview38459"
     pagecolor="#505050"
     bordercolor="#eeeeee"
     borderopacity="1"
     inkscape:pageshadow="0"
     inkscape:pageopacity="0"
     inkscape:pagecheckerboard="0"
     showgrid="true"
     inkscape:zoom="3.8660387"
     inkscape:cx="68.02829"
     inkscape:cy="53.025853"
     inkscape:window-width="1920"
     inkscape:window-height="1017"
     inkscape:window-x="-8"
     inkscape:window-y="-8"
     inkscape:window-maximized="1"
     inkscape:current-layer="svg38457"
     inkscape:snap-object-midpoints="true">
    <inkscape:grid
       type="xygrid"
       id="grid70597"
       spacingx="4"
       spacingy="4"
       empspacing="4" />
  </sodipodi:namedview>
  <path
     id="text62144-1"
     style="font-style:normal;font-weight:normal;font-size:102.778px;line-height:1.25;font-family:sans-serif;fill:#696b95;fill-opacity:1;stroke:none;stroke-width:3.71359"
     d="M 25.476562 8.5195312 L 25.476562 29.914062 L 58.404297 29.914062 L 58.404297 80 L 85.595703 80 L 85.595703 29.914062 L 118.52344 29.914062 L 118.52344 8.5195312 L 25.476562 8.5195312 z " />
  <path
     id="path874"
     style="fill:#696b95;stroke-width:5.74239;-inkscape-stroke:none;stop-color:#000000"
     d="m 25.71584,80.1621 a 46.78692,46.78692 0 0 0 -0.03999,0.565133 46.78692,46.78692 0 0 0 0.421183,5.909911 l -9.415338,6.62699 a 57.340048,57.340048 0 0 0 4.00925,11.854476 l 11.649216,-0.49316 a 46.78692,46.78692 0 0 0 6.139162,8.1198 l -3.726682,10.95078 a 57.340048,57.340048 0 0 0 10.241712,7.24546 l 9.156766,-7.23477 a 46.78692,46.78692 0 0 0 9.729895,2.91362 l 3.457445,11.04676 a 57.340048,57.340048 0 0 0 5.123521,0.40252 57.340048,57.340048 0 0 0 7.482688,-0.50914 l 3.18554,-11.39331 a 46.78692,46.78692 0 0 0 9.372695,-3.20419 l 9.383337,6.95753 A 57.340048,57.340048 0 0 0 112,122.22722 l -4.10788,-10.95346 a 46.78692,46.78692 0 0 0 5.37143,-7.89054 l 11.79317,0.14928 a 57.340048,57.340048 0 0 0 3.75067,-12.256995 l -9.84717,-6.491039 a 46.78692,46.78692 0 0 0 0.29055,-4.057233 46.78692,46.78692 0 0 0 -0.0346,-0.565133 H 95.79243 A 23.39346,23.39346 0 0 1 95.85644,80.727233 23.39346,23.39346 0 0 1 72.462047,104.12164 23.39346,23.39346 0 0 1 49.070316,80.727233 23.39346,23.39346 0 0 1 49.13429,80.1621 Z" />
</svg>
