<?xml version="1.0" encoding="UTF-8" standalone="no"?>
<svg
   height="144"
   width="144"
   version="1.1"
   id="svg38457"
   xmlns="http://www.w3.org/2000/svg"
   xmlns:svg="http://www.w3.org/2000/svg">
  <defs
     id="defs38461" />
  <g
     aria-label="B"
     transform="matrix(1.7066654,0,0,1.8022801,-30.610477,-36.32465)"
     id="text62144"
     style="font-size:67.4945px;line-height:1.25;fill:#696b95;stroke-width:1.68737">
    <path
       d="m 90.49154,69.612118 q 0,3.55928 -1.450077,6.360566 -1.417121,2.801285 -3.9218,4.646838 -2.900154,2.175115 -6.393522,3.097892 Q 75.26573,84.64019 69.92681,84.64019 H 48.505216 V 35.568262 h 19.04874 q 5.932134,0 8.667507,0.395475 2.768329,0.395476 5.470745,1.746684 2.801285,1.417121 4.152494,3.822931 1.384164,2.372853 1.384164,5.437789 0,3.55928 -1.878509,6.294653 -1.878509,2.702416 -5.305964,4.218406 v 0.263651 q 4.81162,0.955732 7.612905,3.954755 2.834242,2.999024 2.834242,7.909512 z M 74.277041,49.442863 q 0,-1.219383 -0.62617,-2.438766 -0.593213,-1.219383 -2.142159,-1.812596 -1.384165,-0.527301 -3.460411,-0.560257 -2.043291,-0.06591 -5.767353,-0.06591 h -1.186426 v 10.381234 h 1.977377 q 2.999024,0 5.108227,-0.09887 2.109203,-0.09887 3.328586,-0.659126 1.713727,-0.757994 2.241028,-1.944421 0.527301,-1.219383 0.527301,-2.801286 z m 3.097892,19.971517 q 0,-2.339897 -0.922776,-3.592236 -0.88982,-1.285296 -3.064936,-1.911466 -1.483034,-0.428431 -4.086581,-0.461388 -2.603548,-0.03296 -5.437789,-0.03296 h -2.768329 v 12.226787 h 0.922776 q 5.33892,0 7.645861,-0.03296 2.306941,-0.03296 4.251363,-0.856863 1.977378,-0.823908 2.702416,-2.175116 0.757995,-1.384165 0.757995,-3.163805 z"
       style="font-weight:bold;-inkscape-font-specification:'sans-serif, Bold'"
       id="path70679" />
  </g>
  <path
     style="font-variation-settings:normal;opacity:1;vector-effect:none;fill:#696b95;fill-opacity:1;stroke:none;stroke-width:4.93224;stroke-linecap:butt;stroke-linejoin:miter;stroke-miterlimit:4;stroke-dasharray:none;stroke-dashoffset:0;stroke-opacity:1;-inkscape-stroke:none;stop-color:#000000;stop-opacity:1"
     d="M 32,32 C 25.714607,32 18.666667,32 18.666667,45.333333 18.666667,58.666667 25.333333,72 25.333333,72 c 0,0 -6.666666,13.333333 -6.666666,26.666667 C 18.666667,112 25.333333,112 32,112 38.666667,112 45.333333,112 45.333333,98.666667 45.333333,85.333333 38.666667,72 38.666667,72 c 0,0 6.666666,-13.333333 6.666666,-26.666667 C 45.333333,32 38.285393,32 32,32 Z"
     id="path21820" />
  <rect
     style="font-variation-settings:normal;opacity:1;vector-effect:none;fill:#696b95;fill-opacity:1;stroke:none;stroke-width:2.4163;stroke-linecap:butt;stroke-linejoin:miter;stroke-miterlimit:4;stroke-dasharray:none;stroke-dashoffset:0;stroke-opacity:1;-inkscape-stroke:none;stop-color:#000000;stop-opacity:1"
     id="rect22138"
     width="24"
     height="16"
     x="32"
     y="64" />
</svg>
