<?xml version="1.0" encoding="UTF-8" standalone="no"?>
<svg
   height="144"
   width="144"
   version="1.1"
   id="svg38457"
   sodipodi:docname="bt-logo-blu.svg"
   inkscape:version="1.1.2 (b8e25be833, 2022-02-05)"
   inkscape:export-filename="bt-logo-blu.png"
   inkscape:export-xdpi="128"
   inkscape:export-ydpi="128"
   xmlns:inkscape="http://www.inkscape.org/namespaces/inkscape"
   xmlns:sodipodi="http://sodipodi.sourceforge.net/DTD/sodipodi-0.dtd"
   xmlns="http://www.w3.org/2000/svg"
   xmlns:svg="http://www.w3.org/2000/svg">
  <defs
     id="defs38461" />
  <sodipodi:namedview
     id="namedview38459"
     pagecolor="#505050"
     bordercolor="#eeeeee"
     borderopacity="1"
     inkscape:pageshadow="0"
     inkscape:pageopacity="0"
     inkscape:pagecheckerboard="0"
     showgrid="true"
     inkscape:zoom="3.8660387"
     inkscape:cx="68.02829"
     inkscape:cy="53.025853"
     inkscape:window-width="1920"
     inkscape:window-height="1017"
     inkscape:window-x="-8"
     inkscape:window-y="-8"
     inkscape:window-maximized="1"
     inkscape:current-layer="svg38457"
     inkscape:snap-object-midpoints="true">
    <inkscape:grid
       type="xygrid"
       id="grid70597"
       spacingx="4"
       spacingy="4"
       empspacing="4" />
  </sodipodi:namedview>
  <path
     id="text62144-1"
     style="font-style:normal;font-weight:normal;font-size:102.778px;line-height:1.25;font-family:sans-serif;fill:#696b95;fill-opacity:1;stroke:none;stroke-width:2.56945"
     d="M 74.623047 26.296875 L 74.623047 41.099609 L 97.40625 41.099609 L 97.40625 92 L 116.2207 92 L 116.2207 41.099609 L 139.00391 41.099609 L 139.00391 26.296875 L 74.623047 26.296875 z " />
  <g
     aria-label="B"
     transform="matrix(1.7066654,0,0,1.8022801,-74.782174,-40.103972)"
     id="text62144"
     style="font-size:67.4945px;line-height:1.25;fill:#696b95;stroke-width:1.68737">
    <path
       d="m 90.49154,69.612118 q 0,3.55928 -1.450077,6.360566 -1.417121,2.801285 -3.9218,4.646838 -2.900154,2.175115 -6.393522,3.097892 Q 75.26573,84.64019 69.92681,84.64019 H 48.505216 V 35.568262 h 19.04874 q 5.932134,0 8.667507,0.395475 2.768329,0.395476 5.470745,1.746684 2.801285,1.417121 4.152494,3.822931 1.384164,2.372853 1.384164,5.437789 0,3.55928 -1.878509,6.294653 -1.878509,2.702416 -5.305964,4.218406 v 0.263651 q 4.81162,0.955732 7.612905,3.954755 2.834242,2.999024 2.834242,7.909512 z M 74.277041,49.442863 q 0,-1.219383 -0.62617,-2.438766 -0.593213,-1.219383 -2.142159,-1.812596 -1.384165,-0.527301 -3.460411,-0.560257 -2.043291,-0.06591 -5.767353,-0.06591 h -1.186426 v 10.381234 h 1.977377 q 2.999024,0 5.108227,-0.09887 2.109203,-0.09887 3.328586,-0.659126 1.713727,-0.757994 2.241028,-1.944421 0.527301,-1.219383 0.527301,-2.801286 z m 3.097892,19.971517 q 0,-2.339897 -0.922776,-3.592236 -0.88982,-1.285296 -3.064936,-1.911466 -1.483034,-0.428431 -4.086581,-0.461388 -2.603548,-0.03296 -5.437789,-0.03296 h -2.768329 v 12.226787 h 0.922776 q 5.33892,0 7.645861,-0.03296 2.306941,-0.03296 4.251363,-0.856863 1.977378,-0.823908 2.702416,-2.175116 0.757995,-1.384165 0.757995,-3.163805 z"
       style="font-weight:bold;-inkscape-font-specification:'sans-serif, Bold'"
       id="path70679" />
  </g>
  <path
     id="path874"
     style="fill:#696b95;stroke-width:2.85126;-inkscape-stroke:none;stop-color:#000000"
     d="m 106.70275,80.966504 a 28.470994,28.470994 0 0 0 -3.37274,0.264676 l -1.55592,5.565775 a 23.231061,23.231061 0 0 0 -4.90031,1.606967 l -4.601578,-3.412441 a 28.470994,28.470994 0 0 0 -4.970249,3.688461 l 2.015312,5.372939 a 23.231061,23.231061 0 0 0 -2.917113,4.21593 l -5.764281,-0.07183 a 28.470994,28.470994 0 0 0 -1.847056,5.919309 l 4.836004,3.18745 a 23.231061,23.231061 0 0 0 -0.1532,2.13444 23.231061,23.231061 0 0 0 0.209856,2.93412 l -4.675321,3.28957 a 28.470994,28.470994 0 0 0 1.990744,5.88716 l 5.783185,-0.24575 a 23.231061,23.231061 0 0 0 3.049452,4.03252 l -1.850834,5.43721 a 28.470994,28.470994 0 0 0 5.085573,3.59772 l 4.546756,-3.59203 a 23.231061,23.231061 0 0 0 4.83036,1.44625 l 1.71661,5.48449 a 28.470994,28.470994 0 0 0 2.54469,0.2004 28.470994,28.470994 0 0 0 3.71493,-0.25334 L 112,132 a 23.231061,23.231061 0 0 0 4.65265,-1.59186 l 4.66018,3.45592 a 28.470994,28.470994 0 0 0 5.02132,-3.8208 l -2.03983,-5.43912 a 23.231061,23.231061 0 0 0 2.66756,-3.91723 l 5.85501,0.0737 a 28.470994,28.470994 0 0 0 1.86219,-6.08567 l -4.88895,-3.22333 a 23.231061,23.231061 0 0 0 0.14366,-2.01344 23.231061,23.231061 0 0 0 -0.15884,-2.6581 l 4.75093,-3.34439 a 28.470994,28.470994 0 0 0 -2.021,-6.013845 l -5.77939,0.245774 A 23.231061,23.231061 0 0 0 123.85,93.767417 l 1.87733,-5.509063 a 28.470994,28.470994 0 0 0 -5.09313,-3.644977 l -4.53922,3.58448 a 23.231061,23.231061 0 0 0 -4.83414,-1.538907 l -1.73361,-5.543087 a 28.470994,28.470994 0 0 0 -2.8245,-0.149353 z m 0,16.856137 a 11.61553,11.61553 0 0 1 11.61554,11.615529 11.61553,11.61553 0 0 1 -11.61554,11.61553 11.61553,11.61553 0 0 1 -11.61552,-11.61553 11.61553,11.61553 0 0 1 11.61552,-11.615529 z" />
</svg>
