<?xml version="1.0" encoding="UTF-8" standalone="no"?>
<svg
   height="144"
   width="144"
   version="1.1"
   id="svg38457"
   sodipodi:docname="bt-logo-blu.svg"
   inkscape:version="1.1.2 (b8e25be833, 2022-02-05)"
   inkscape:export-filename="bt-logo-blk.png"
   inkscape:export-xdpi="48"
   inkscape:export-ydpi="48"
   xmlns:inkscape="http://www.inkscape.org/namespaces/inkscape"
   xmlns:sodipodi="http://sodipodi.sourceforge.net/DTD/sodipodi-0.dtd"
   xmlns="http://www.w3.org/2000/svg"
   xmlns:svg="http://www.w3.org/2000/svg">
  <defs
     id="defs38461" />
  <sodipodi:namedview
     id="namedview38459"
     pagecolor="#505050"
     bordercolor="#eeeeee"
     borderopacity="1"
     inkscape:pageshadow="0"
     inkscape:pageopacity="0"
     inkscape:pagecheckerboard="0"
     showgrid="false"
     inkscape:zoom="7.7320774"
     inkscape:cx="71.067576"
     inkscape:cy="71.002911"
     inkscape:window-width="1920"
     inkscape:window-height="1017"
     inkscape:window-x="-8"
     inkscape:window-y="-8"
     inkscape:window-maximized="1"
     inkscape:current-layer="svg38457" />
  <path
     id="path38453"
     d="m 71.050781,23.679688 c -26.06,0 -47.271484,21.219531 -47.271484,47.269531 0,26.05 21.221484,47.271481 47.271484,47.271481 26.05,0 47.269529,-21.221481 47.269529,-47.271481 0,-26.05 -21.219529,-47.269531 -47.269529,-47.269531 z m -0.234375,4.199218 c 0.05414,-0.0012 0.109293,2.74e-4 0.164063,0.002 1.680761,0.04353 3.020091,1.42263 3.019531,3.109375 0,4.146665 -6.220703,4.146665 -6.220703,0 -7.11e-4,-1.698583 1.35876,-3.073251 3.037109,-3.111328 z M 63.949219,33 l 4.791015,5.019531 c 1.08,1.13 2.87,1.179852 4,0.08984 L 78.099609,33 c 11.050222,2.069744 20.632606,8.893769 26.201171,18.660156 l -3.66992,8.279297 c -0.63,1.43 0.0195,3.11 1.43945,3.75 l 7.06055,3.130859 c 0.219,2.206835 0.24581,4.429153 0.0801,6.640626 -0.16543,2.207513 -0.91045,7.54292 -2.24414,11.060546 -1.20268,3.172091 -3.131,6.044383 -5.09766,8.808594 -1.04656,1.470983 -2.263702,2.81827 -3.539062,4.09961 l -6.570312,-1.410157 c -1.53,-0.33 -3.039141,0.649688 -3.369141,2.179688 l -1.560547,7.281251 c -10.151161,4.59844 -21.802675,4.54328 -31.910156,-0.15039 L 53.359375,98.050781 C 53.029375,96.520781 51.53,95.539141 50,95.869141 L 43.570312,97.25 C 42.377099,96.019166 41.188065,94.762658 40.25,93.330078 37.761607,89.529891 35.454936,85.476596 34.240234,81.099609 32.933303,76.390287 32.46782,71.394636 33,66.490234 l 6.699219,-2.980468 c 1.43,-0.64 2.081406,-2.310235 1.441406,-3.740235 0,0 -2.571328,-4.539168 -3.894531,-7.083984 2.183916,-4.298375 2.224167,-4.305664 5.292968,-7.605469 C 48.271294,38.916352 55.678289,34.5626 63.949219,33 Z M 33.736328,56.019531 c 0.05414,-0.0012 0.109293,-0.0016 0.164063,0 1.682359,0.04871 3.020236,1.428264 3.019531,3.111328 0,4.146665 -6.220703,4.146665 -6.220703,0 -7.11e-4,-1.698583 1.35876,-3.073251 3.037109,-3.111328 z m 74.150392,0.140625 c 0.0541,-0.0012 0.10929,-0.0016 0.16406,0 1.68236,0.04871 3.02023,1.426311 3.01953,3.109375 0,4.146665 -6.2207,4.146665 -6.2207,0 -7.1e-4,-1.698583 1.35876,-3.071298 3.03711,-3.109375 z M 47.787109,99.808594 c 0.05414,-0.0012 0.10734,2.73e-4 0.16211,0.002 1.682359,0.04871 3.022189,1.426316 3.021484,3.109376 0,4.14666 -6.220703,4.14666 -6.220703,0 -7.11e-4,-1.69859 1.35876,-3.073253 3.037109,-3.111329 z m 46.048829,0.140625 c 0.05414,-0.0012 0.109292,-0.0016 0.164062,0 1.682359,0.04871 3.020236,1.428271 3.019531,3.111331 0,4.14666 -6.21875,4.14666 -6.21875,0 -7.11e-4,-1.69859 1.356808,-3.073255 3.035157,-3.111331 z"
     sodipodi:nodetypes="ssssscccccccccccccsaaccccccccssccccsccccccccccccccccccccccc"
     style="fill:#696b95;fill-opacity:1" />
  <path
     d="m115.68 70.95a44.63 44.63 0 0 1 -44.63 44.63 44.63 44.63 0 0 1 -44.63-44.63 44.63 44.63 0 0 1 44.63-44.63 44.63 44.63 0 0 1 44.63 44.63zm-.84-4.31 6.96 4.31-6.96 4.31 5.98 5.59-7.66 2.87 4.78 6.65-8.09 1.32 3.4 7.46-8.19-.29 1.88 7.98-7.98-1.88.29 8.19-7.46-3.4-1.32 8.09-6.65-4.78-2.87 7.66-5.59-5.98-4.31 6.96-4.31-6.96-5.59 5.98-2.87-7.66-6.65 4.78-1.32-8.09-7.46 3.4.29-8.19-7.98 1.88 1.88-7.98-8.19.29 3.4-7.46-8.09-1.32 4.78-6.65-7.66-2.87 5.98-5.59-6.96-4.31 6.96-4.31-5.98-5.59 7.66-2.87-4.78-6.65 8.09-1.32-3.4-7.46 8.19.29-1.88-7.98 7.98 1.88-.29-8.19 7.46 3.4 1.32-8.09 6.65 4.78 2.87-7.66 5.59 5.98 4.31-6.96 4.31 6.96 5.59-5.98 2.87 7.66 6.65-4.78 1.32 8.09 7.46-3.4-.29 8.19 7.98-1.88-1.88 7.98 8.19-.29-3.4 7.46 8.09 1.32-4.78 6.65 7.66 2.87z"
     fill-rule="evenodd"
     stroke="#000"
     stroke-linecap="round"
     stroke-linejoin="round"
     stroke-width="3"
     id="path38455"
     style="stroke-width:3;stroke-miterlimit:4;stroke-dasharray:none;stroke:#696b95;stroke-opacity:1;fill:#696b95;fill-opacity:1" />
  <text
     xml:space="preserve"
     style="font-style:normal;font-weight:normal;font-size:67.4945px;line-height:1.25;font-family:sans-serif;fill:#696b95;fill-opacity:1;stroke:none;stroke-width:1.68737"
     x="42.243519"
     y="84.64019"
     id="text62144"
     transform="scale(0.87067273,1.1485372)"><tspan
       sodipodi:role="line"
       id="tspan62142"
       x="42.243519"
       y="84.64019"
       style="font-style:normal;font-variant:normal;font-weight:bold;font-stretch:normal;font-size:67.4945px;font-family:sans-serif;-inkscape-font-specification:'sans-serif, Bold';font-variant-ligatures:normal;font-variant-caps:normal;font-variant-numeric:normal;font-variant-east-asian:normal;fill:#696b95;fill-opacity:1;stroke-width:1.68737">B</tspan></text>
  <text
     xml:space="preserve"
     style="font-style:normal;font-weight:normal;font-size:73.9331px;line-height:1.25;font-family:sans-serif;fill:#696b95;fill-opacity:1;stroke:none;stroke-width:1.84833"
     x="68.750694"
     y="92.867226"
     id="text62144-1"
     transform="scale(0.95372907,1.0485158)"><tspan
       sodipodi:role="line"
       id="tspan62142-4"
       x="68.750694"
       y="92.867226"
       style="font-style:normal;font-variant:normal;font-weight:bold;font-stretch:normal;font-size:73.9331px;font-family:sans-serif;-inkscape-font-specification:'sans-serif, Bold';font-variant-ligatures:normal;font-variant-caps:normal;font-variant-numeric:normal;font-variant-east-asian:normal;fill:#696b95;fill-opacity:1;stroke-width:1.84833">T</tspan></text>
</svg>
